<svg xmlns="http://www.w3.org/2000/svg" viewBox="0 0 470 470"><defs><style>.cls-1{fill:#fff;}.cls-2{fill:#824eff;}</style></defs><g id="Layer_2" data-name="Layer 2"><g id="Layer_2-2" data-name="Layer 2"><rect class="cls-1" width="470" height="470"/><path class="cls-2" d="M152.79,273.23h22.37v-8.29a3.35,3.35,0,0,1,3.34-3.34h113a3.35,3.35,0,0,1,3.34,3.34v8.29h22.37a7.57,7.57,0,0,1,7.55,7.55V322.2a7.57,7.57,0,0,1-7.55,7.55H152.79a7.57,7.57,0,0,1-7.55-7.55V280.78A7.57,7.57,0,0,1,152.79,273.23Z"/><rect class="cls-2" x="186.79" y="251.62" width="96.41" height="6.12" rx="1.84" transform="translate(470 509.36) rotate(180)"/><rect class="cls-2" x="201.75" y="239.99" width="66.49" height="8.31" rx="0.89" transform="translate(470 488.29) rotate(180)"/><circle class="cls-2" cx="250.79" cy="169.34" r="29.09"/><polygon class="cls-2" points="254.85 196.94 246.64 239.99 221.7 239.99 235 192.61 254.85 196.94"/><path class="cls-1" d="M245,150.22c-18.28,11.64-13.29,26.6-11.63,29.92s-3.33,5-5,2.14c-7.48-22.91,5-30.39,13.63-36.12,0,0,1.33-.92,3,.74A2.29,2.29,0,0,1,245,150.22Z"/></g></g></svg>