<svg xmlns="http://www.w3.org/2000/svg" viewBox="0 0 470 470"><defs><style>.cls-1{fill:#fff;}.cls-2{fill:#824eff;}</style></defs><g id="Layer_2" data-name="Layer 2"><g id="Layer_3" data-name="Layer 3"><rect class="cls-1" width="470" height="470"/><path class="cls-2" d="M186.57,287.46s-42,1-39,28,24,25,24,25,34,0,35-21c.84-17.7-.44-87.23-.87-108.67a12.93,12.93,0,0,1,7.14-11.88,41.73,41.73,0,0,1,10.73-3.45c19.47-3.71,53.13-11.57,59.26-12.85.42-.09.83-.21,1.24-.34,1.87-.59,17.36-2.81,16.5,9.19-1,14,.08,65.39.08,65.39S301.57,268.46,288,268s-38.72,4.58-36.46,29.5c2,22,29,20,29,20s29-2,31-27l.08-94,.92-60s1-10-17-6-93,19-93,19-8,0-8,15l1,110v8C195.57,284.92,190.57,287.46,186.57,287.46Z"/></g></g></svg>