<svg xmlns="http://www.w3.org/2000/svg" viewBox="0 0 470 470"><defs><style>.cls-1{fill:#fff;}.cls-2{fill:#824eff;}</style></defs><g id="Layer_2" data-name="Layer 2"><g id="Layer_4" data-name="Layer 4"><rect class="cls-1" width="470" height="470"/><path class="cls-2" d="M334.71,247.67V221.19c0-4-4-3-4-3a21.28,21.28,0,0,1-11.84-1.05,20.23,20.23,0,0,1-7.42-4.86c-14-14.24-1.73-29.56,1.76-33,3.72-3.72,0-6.55,0-6.55l-17.5-17.5c-1.5-1.5-2.75-1.5-3.63-1.13-.7.3-1.06,1-1.54,1.59-1.25,1.54-4.46,7.68-19.83,8.54-18,1-20.5-19.5-20.5-24.5a4.61,4.61,0,0,0-4.77-4.88H224.56a4.61,4.61,0,0,0-4.77,4.88c0,5-2.5,25.5-20.5,24.5-17.31-1-17.19-6.1-21-9.84a1.41,1.41,0,0,0-.5-.33c-.87-.33-2.08-.28-3.52,1.17l-17.5,17.5s-3.72,2.83,0,6.55,16.66,19.9.16,34.56a12.62,12.62,0,0,1-3.64,2.28,31.06,31.06,0,0,1-14,2.11s-4-1-4,3v26.48s-1,3.52,4,3.52c0,0,20-4,25,18,5,14-9,22-9,22s-3,2,2,6l16,17s2.68,4,6.84,0,18.16-17,35.16,0c0,0,5,5,3,17,0,0-1,4,5,4h23.42c6,0,5-4,5-4-2-12,3-17,3-17,17-17,31-4,35.16,0s6.84,0,6.84,0l16-17c5-4,2-6,2-6s-14-8-9-22c5-22,25-18,25-18C335.71,251.19,334.71,247.67,334.71,247.67Zm-99.42,21.52a34,34,0,1,1,34-34A34,34,0,0,1,235.29,269.19Z"/></g></g></svg>