<svg xmlns="http://www.w3.org/2000/svg" viewBox="0 0 134.55 76.6"><defs><style>.cls-1{fill:#6d5fa9;}.cls-2{fill:#fff;}</style></defs><g id="Layer_2" data-name="Layer 2"><g id="Layer_2-2" data-name="Layer 2"><path class="cls-1" d="M33.47,0h69.08a30.42,30.42,0,0,1,17.17,5.18c7.42,5,15.2,14.84,14.82,33.81-.39,20-9.12,29.36-16.8,33.76A29.7,29.7,0,0,1,102.9,76.6H33.26A32.45,32.45,0,0,1,13.7,70.15C6.57,64.81-.45,55.23,0,38.3c.45-16,6.73-25.43,13.24-30.92A31.09,31.09,0,0,1,33.47,0Z"/><path class="cls-2" d="M55.35,61.94h38.1a24.11,24.11,0,0,0,10.67-2.37c5.52-2.7,11.79-8.48,12.07-20.78.27-11.67-5.31-17.71-10.65-20.81A24.61,24.61,0,0,0,93.2,14.79H43.56A24.74,24.74,0,0,0,29,19.33c-4.68,3.39-9.19,9.19-9.52,19C19.17,48.79,24.22,54.69,29.34,58a26.09,26.09,0,0,0,14.06,4l-3.48,9.52Z"/><ellipse class="cls-1" cx="43.21" cy="38.21" rx="8.87" ry="10.21"/><ellipse class="cls-1" cx="93" cy="38.21" rx="8.87" ry="10.21"/><path class="cls-1" d="M67.85,55.29a4.6,4.6,0,0,0,4.6-4.6H63.26A4.59,4.59,0,0,0,67.85,55.29Z"/><path class="cls-2" d="M119,38.3a3.77,3.77,0,0,0-3.77-3.77v7.53A3.76,3.76,0,0,0,119,38.3Z"/><path class="cls-2" d="M16.11,38.21a3.76,3.76,0,0,1,3.77-3.76V42A3.77,3.77,0,0,1,16.11,38.21Z"/><rect class="cls-2" x="117.57" y="14.45" width="1.4" height="24.45"/></g></g></svg>