<svg xmlns="http://www.w3.org/2000/svg" viewBox="0 0 134.55 100.18"><defs><style>.cls-1{fill:#6d5fa9;}.cls-2{fill:#fff;}</style></defs><g id="Layer_2" data-name="Layer 2"><g id="Layer_2-2" data-name="Layer 2"><path class="cls-1" d="M33.47,0h69.08a30.42,30.42,0,0,1,17.17,5.18c7.42,5,15.2,14.84,14.82,33.81-.39,20-9.12,29.36-16.8,33.76A29.7,29.7,0,0,1,102.9,76.6H33.26A32.45,32.45,0,0,1,13.7,70.15C6.57,64.81-.45,55.23,0,38.3c.45-16,6.73-25.43,13.24-30.92A31.09,31.09,0,0,1,33.47,0Z"/><path class="cls-2" d="M55.35,61.94h38.1a24.11,24.11,0,0,0,10.67-2.37c5.52-2.7,11.79-8.48,12.07-20.78.27-11.67-5.31-17.71-10.65-20.81A24.61,24.61,0,0,0,93.2,14.79H43.56A24.74,24.74,0,0,0,29,19.33c-4.68,3.39-9.19,9.19-9.52,19C19.17,48.79,24.22,54.69,29.34,58a26.09,26.09,0,0,0,14.06,4l-3.48,9.52Z"/><ellipse class="cls-1" cx="43.21" cy="38.21" rx="8.87" ry="10.21"/><ellipse class="cls-1" cx="93" cy="38.21" rx="8.87" ry="10.21"/><path class="cls-1" d="M67.85,55.29a4.6,4.6,0,0,0,4.6-4.6H63.26A4.59,4.59,0,0,0,67.85,55.29Z"/><path class="cls-2" d="M119,38.3a3.77,3.77,0,0,0-3.77-3.77v7.53A3.76,3.76,0,0,0,119,38.3Z"/><path class="cls-2" d="M16.11,38.21a3.76,3.76,0,0,1,3.77-3.76V42A3.77,3.77,0,0,1,16.11,38.21Z"/><rect class="cls-2" x="117.57" y="14.45" width="1.4" height="24.45"/></g><g id="Layer_3" data-name="Layer 3"><path class="cls-2" d="M32.61,99.89V87.37H38a5.42,5.42,0,0,1,4,1.54,6.29,6.29,0,0,1,1.63,4.65,6.81,6.81,0,0,1-1.4,4.52A5.27,5.27,0,0,1,38,99.89Zm2.75-10.2v7.88h2.45A2.89,2.89,0,0,0,40,96.73a4,4,0,0,0,1-2.91,4.9,4.9,0,0,0-.77-3,3.37,3.37,0,0,0-2.84-1.12Z"/><path class="cls-2" d="M45.91,96.17V94h5.28v2.14Z"/><path class="cls-2" d="M53.92,99.89V87.37h5.89c2.66,0,4,1,4,3.1a2.74,2.74,0,0,1-1.7,2.62,3,3,0,0,1,2.29,3.17A3.2,3.2,0,0,1,63,99a5.1,5.1,0,0,1-3.05.86Zm2.75-10.38v2.93h2.79c1.12,0,1.68-.5,1.68-1.49s-.63-1.44-1.89-1.44Zm0,4.8v3.44h2.95c1.35,0,2-.55,2-1.65s-.66-1.79-2-1.79Z"/><path class="cls-2" d="M66.31,93.68A6.84,6.84,0,0,1,67.94,89a6.32,6.32,0,0,1,9,0,6.84,6.84,0,0,1,1.63,4.7A6.64,6.64,0,0,1,77,98.29a6.36,6.36,0,0,1-9,0A6.64,6.64,0,0,1,66.31,93.68Zm2.75,0a4.94,4.94,0,0,0,.78,2.88,3.29,3.29,0,0,0,5.25,0,4.94,4.94,0,0,0,.78-2.88,5.15,5.15,0,0,0-.78-3,3.26,3.26,0,0,0-5.25,0A5.15,5.15,0,0,0,69.06,93.68Z"/><path class="cls-2" d="M83.86,99.89V89.69H80.11V87.37H90.36v2.32H86.61v10.2Z"/><path class="cls-2" d="M91.61,95.73h2.66a2.07,2.07,0,0,0,.84,1.79,3.2,3.2,0,0,0,1.93.53,3.68,3.68,0,0,0,1.58-.3,1.33,1.33,0,0,0,.86-1.26c0-.72-.65-1.25-1.93-1.62q-3.33-.95-3.6-1.08A3.07,3.07,0,0,1,92,90.86,3.31,3.31,0,0,1,93.52,88a5.41,5.41,0,0,1,3.19-.93,5.94,5.94,0,0,1,3.48.93,3.57,3.57,0,0,1,1.53,3.11H99.05c-.07-1.27-.89-1.9-2.47-1.9a2.45,2.45,0,0,0-1.28.32,1.21,1.21,0,0,0-.61,1.1,1,1,0,0,0,.68,1,26.68,26.68,0,0,0,3,.89,7.15,7.15,0,0,1,2.19.85,3.12,3.12,0,0,1,1.53,2.8A3.51,3.51,0,0,1,100.81,99a6,6,0,0,1-3.88,1.14,6.06,6.06,0,0,1-3.71-1.07A3.88,3.88,0,0,1,91.61,95.73Z"/></g></g></svg>