<svg xmlns="http://www.w3.org/2000/svg" viewBox="0 0 1920 752.23"><defs><style>.cls-1{fill:#4cc9f0;}.cls-2{fill:#4895ef;}.cls-3{fill:#4361ee;}.cls-4{fill:#3f37c9;}.cls-5{fill:#3a0ca3;}.cls-6{fill:#560bad;}.cls-7{fill:#7209b7;}.cls-8{fill:#b5179e;}.cls-9{fill:#f72585;}.cls-10{fill:#7395ff;}.cls-11{fill:#fff;}</style></defs><g id="Layer_2" data-name="Layer 2"><g id="background"><rect class="cls-1" y="2.23" width="1920" height="750"/><path class="cls-2" d="M993,2.23l-445.26-1,98,265.5L1920,381.23v-362s-53.15,78.85-184,80c-19.33.17-62-5-89.44-16C1400.63-15.38,1369.5,44,1250,3.23Z"/><path class="cls-3" d="M873,4.23c156,115,252-33,622,106,186.4,70,425,20,425,20v243L522.72,266.73,345,1.23l525,1"/><path class="cls-4" d="M148,2.23s407-19,629,54c181.38,59.64,168,108.88,448,103.66,411-7.66,695,145.34,695,145.34v219l-1453-158Z"/><path class="cls-5" d="M93,2.23s385,0,677,91c224,69.8,190,119,467,93.66,230.64-21.1,683,200.34,683,200.34v163l-1441-157Z"/><path class="cls-6" d="M0,2.23s337-15,492,88.17C643.88,191.49,638.47,374.23,948,346.23c548.92-49.66,972,204,972,204v188H32Z"/><path class="cls-7" d="M0,2.23s335-6,460,102.17C588.15,215.29,597,405.23,906.53,377.23c548.92-49.66,1013.47,203,1013.47,203v172H0Z"/><path class="cls-8" d="M0,2.23s301.5,7.5,315,272,313.5,317.5,448.5,280.5,342-186,514-28S1920,752.23,1920,752.23H0Z"/><path class="cls-9" d="M0,2.23s285.5,31.5,299,296,313.5,317.5,448.5,280.5,342-186,514-28S1636,752.23,1636,752.23H0Z"/></g><g id="logo"><path class="cls-10" d="M1446.18,243.78h167.07a73.55,73.55,0,0,1,41.51,12.53c18,12.17,36.75,35.88,35.85,81.76-1,48.3-22.06,71-40.64,81.65a71.76,71.76,0,0,1-35.89,9.3H1445.67a78.41,78.41,0,0,1-47.31-15.59c-17.25-12.91-34.22-36.07-33.08-77,1.09-38.68,16.28-61.49,32-74.78A75.25,75.25,0,0,1,1446.18,243.78Z"/><path class="cls-11" d="M1499.08,393.59h92.16a58.51,58.51,0,0,0,25.8-5.73c13.34-6.55,28.51-20.53,29.2-50.26.65-28.24-12.86-42.84-25.76-50.33a59.37,59.37,0,0,0-29.84-7.71H1470.57a59.86,59.86,0,0,0-35.14,11c-11.31,8.18-22.23,22.22-23,46-.82,25.22,11.37,39.47,23.78,47.42a62.88,62.88,0,0,0,34,9.6l-8.42,23Z"/><ellipse class="cls-10" cx="1469.74" cy="336.2" rx="21.46" ry="24.7"/><ellipse class="cls-10" cx="1590.14" cy="336.2" rx="21.46" ry="24.7"/><path class="cls-10" d="M1529.32,377.49a11.12,11.12,0,0,0,11.12-11.12h-22.23A11.11,11.11,0,0,0,1529.32,377.49Z"/><path class="cls-11" d="M1653,336.4a9.1,9.1,0,0,0-9.11-9.1v18.21A9.11,9.11,0,0,0,1653,336.4Z"/><path class="cls-11" d="M1404.2,336.2a9.11,9.11,0,0,1,9.11-9.11V345.3A9.1,9.1,0,0,1,1404.2,336.2Z"/><rect class="cls-11" x="1649.56" y="278.72" width="3.4" height="59.12"/><path class="cls-11" d="M1439.9,461.5a69.63,69.63,0,0,1,10.54-.74c6.56,0,10.85,1.21,14.16,3.71,3.6,2.68,5.85,6.9,5.85,13,0,6.62-2.4,11.21-5.72,14-3.64,3-9.21,4.48-16,4.48a66.73,66.73,0,0,1-8.88-.51Zm7.81,28.23a17.25,17.25,0,0,0,2.72.13c7.09.06,11.74-3.85,11.74-12.12,0-7.18-4.19-11-10.91-11a16.53,16.53,0,0,0-3.55.3Z"/><path class="cls-11" d="M1489.53,479.53v5.2h-13.42v-5.2Z"/><path class="cls-11" d="M1496.24,461.5a62.81,62.81,0,0,1,10.09-.74c4.77,0,7.7.47,10.23,1.94a7.52,7.52,0,0,1,4.12,6.82c0,3-1.78,5.91-5.68,7.36V477c4,1,6.89,4.05,6.89,8.47a9.18,9.18,0,0,1-3.6,7.35c-2.54,2-6.71,3.15-13.6,3.15a61.44,61.44,0,0,1-8.45-.51Zm7.75,13.25h2.53c4.15,0,6.31-1.72,6.31-4.29s-2-4-5.53-4a16.76,16.76,0,0,0-3.31.24Zm0,15.3a18.87,18.87,0,0,0,3,.14c3.55,0,6.67-1.37,6.67-5,0-3.47-3.1-4.85-7-4.85H1504Z"/><path class="cls-11" d="M1560.61,478c0,11.34-6.85,18.2-17,18.2-10.26,0-16.29-7.76-16.29-17.62,0-10.34,6.65-18.1,16.83-18.1C1554.81,460.46,1560.61,468.41,1560.61,478Zm-25,.43c0,6.77,3.19,11.55,8.41,11.55s8.3-5,8.3-11.72c0-6.23-2.94-11.56-8.32-11.56S1535.63,471.68,1535.63,478.41Z"/><path class="cls-11" d="M1572.76,467.59h-9.34V461H1590v6.56h-9.46v28h-7.82Z"/><path class="cls-11" d="M1595.74,487.54a19.32,19.32,0,0,0,8.67,2.18c3.59,0,5.5-1.5,5.5-3.77s-1.66-3.38-5.8-4.84c-5.77-2-9.54-5.19-9.54-10.24,0-5.9,5-10.38,13.09-10.38a20.47,20.47,0,0,1,8.83,1.74l-1.73,6.27a16.66,16.66,0,0,0-7.22-1.64c-3.4,0-5,1.58-5,3.34,0,2.2,1.92,3.17,6.4,4.87,6.13,2.29,9,5.46,9,10.35,0,5.78-4.42,10.73-13.94,10.73a22.28,22.28,0,0,1-9.77-2.15Z"/></g></g></svg>