<svg xmlns="http://www.w3.org/2000/svg" viewBox="0 0 1920 752.23"><defs><style>.cls-1{fill:#4cc9f0;}.cls-2{fill:#4895ef;}.cls-3{fill:#4361ee;}.cls-4{fill:#3f37c9;}.cls-5{fill:#3a0ca3;}.cls-6{fill:#560bad;}.cls-7{fill:#7209b7;}.cls-8{fill:#b5179e;}.cls-9{fill:#f72585;}</style></defs><g id="Layer_2" data-name="Layer 2"><g id="background"><rect class="cls-1" y="2.23" width="1920" height="750"/><path class="cls-2" d="M993,2.23l-445.26-1,98,265.5L1920,381.23v-362s-53.15,78.85-184,80c-19.33.17-62-5-89.44-16C1400.63-15.38,1369.5,44,1250,3.23Z"/><path class="cls-3" d="M873,4.23c156,115,252-33,622,106,186.4,70,425,20,425,20v243L522.72,266.73,345,1.23l525,1"/><path class="cls-4" d="M148,2.23s407-19,629,54c181.38,59.64,168,108.88,448,103.66,411-7.66,695,145.34,695,145.34v219l-1453-158Z"/><path class="cls-5" d="M93,2.23s385,0,677,91c224,69.8,190,119,467,93.66,230.64-21.1,683,200.34,683,200.34v163l-1441-157Z"/><path class="cls-6" d="M0,2.23s337-15,492,88.17C643.88,191.49,638.47,374.23,948,346.23c548.92-49.66,972,204,972,204v188H32Z"/><path class="cls-7" d="M0,2.23s335-6,460,102.17C588.15,215.29,597,405.23,906.53,377.23c548.92-49.66,1013.47,203,1013.47,203v172H0Z"/><path class="cls-8" d="M0,2.23s301.5,7.5,315,272,313.5,317.5,448.5,280.5,342-186,514-28S1920,752.23,1920,752.23H0Z"/><path class="cls-9" d="M0,2.23s285.5,31.5,299,296,313.5,317.5,448.5,280.5,342-186,514-28S1636,752.23,1636,752.23H0Z"/></g></g></svg>